HIERARCHY
ROOT Hips
{
	OFFSET -0.179506 -22.333345 2.821913
	CHANNELS 6 Xposition Yposition Zposition Zrotation Yrotation Xrotation 
	JOINT LeftUpLeg
	{
		OFFSET 6.951974 -9.140623 -0.681533
		CHANNELS 3 Zrotation Yrotation Xrotation
		JOINT LeftLeg
		{
			OFFSET 3.427654 -37.519855 -0.449580
			CHANNELS 3 Zrotation Yrotation Xrotation
			JOINT LeftFoot
			{
				OFFSET -1.359570 -39.796059 -4.369333
				CHANNELS 3 Zrotation Yrotation Xrotation
				JOINT LeftToe
				{
					OFFSET 2.635814 -5.579078 11.928840
					CHANNELS 3 Zrotation Yrotation Xrotation
					End Site
					{
						OFFSET 0.000000 0.000000 0.000000
					}
				}
			}
		}
	}
	JOINT RightUpLeg
	{
		OFFSET -6.767048 -9.052170 -0.431982
		CHANNELS 3 Zrotation Yrotation Xrotation
		JOINT RightLeg
		{
			OFFSET -3.829005 -38.256897 -0.885003
			CHANNELS 3 Zrotation Yrotation Xrotation
			JOINT RightFoot
			{
				OFFSET 1.577377 -39.841461 -4.231180
				CHANNELS 3 Zrotation Yrotation Xrotation
				JOINT RightToe
				{
					OFFSET -2.537174 -4.814398 12.334795
					CHANNELS 3 Zrotation Yrotation Xrotation
					End Site
					{
						OFFSET 0.000000 0.000000 0.000000
					}
				}
			}
		}
	}
	JOINT Spine
	{
		OFFSET -0.253288 10.896323 -2.669631
		CHANNELS 3 Zrotation Yrotation Xrotation
		JOINT Spine1
		{
			OFFSET 0.548704 13.518043 0.109247
			CHANNELS 3 Zrotation Yrotation Xrotation
			JOINT Spine2
			{
				OFFSET 0.145701 5.292222 2.542457
				CHANNELS 3 Zrotation Yrotation Xrotation
				JOINT Neck
				{
					OFFSET -0.277840 21.387037 -4.285703
					CHANNELS 3 Zrotation Yrotation Xrotation
					JOINT Head
					{
						OFFSET 0.515184 6.496960 5.134897
						CHANNELS 3 Zrotation Yrotation Xrotation
						End Site
						{
							OFFSET 0.000000 0.000000 0.000000
						}
					}
				}
				JOINT LeftShoulder
				{
					OFFSET 7.884473 12.174932 -3.408961
					CHANNELS 3 Zrotation Yrotation Xrotation
					JOINT LeftArm
					{
						OFFSET 9.097692 3.046888 -0.886815
						CHANNELS 3 Zrotation Yrotation Xrotation
						JOINT LeftForeArm
						{
							OFFSET 25.961220 -1.277207 -2.745643
							CHANNELS 3 Zrotation Yrotation Xrotation
							JOINT LeftHand
							{
								OFFSET 24.923361 0.898606 -0.117091
								CHANNELS 3 Zrotation Yrotation Xrotation
								End Site
								{
									OFFSET 0.000000 0.000000 0.000000
								}
							}
						}
					}
				}
				JOINT RightShoulder
				{
					OFFSET -8.175920 11.883285 -3.861528
					CHANNELS 3 Zrotation Yrotation Xrotation
					JOINT RightArm
					{
						OFFSET -9.601238 3.255117 -0.914307
						CHANNELS 3 Zrotation Yrotation Xrotation
						JOINT RightForeArm
						{
							OFFSET -25.374195 -1.332924 -2.140099
							CHANNELS 3 Zrotation Yrotation Xrotation
							JOINT RightHand
							{
								OFFSET -25.529810 0.777228 -0.555919
								CHANNELS 3 Zrotation Yrotation Xrotation
								End Site
								{
									OFFSET 0.000000 0.000000 0.000000
								}
							}
						}
					}
				}
			}
		}
	}
}
MOTION
Frames: 12
Frame Time: 0.033333
-16.464939 3.969288 88.121735 121.110275 -22.242159 75.446640 25.197693 4.454198 -16.792227 -8.553842 2.227744 38.526875 -11.123537 1.102854 6.313688 nan nan nan -13.657545 -10.777150 -11.122242 -8.457735 -20.513393 44.058327 -7.880574 -17.589869 -36.723931 nan nan nan -3.049344 4.648902 18.546950 -5.675394 5.193198 3.725015 -2.779125 0.993768 -2.009330 -2.874134 10.909247 8.313652 -8.951535 12.371626 23.619442 -31.347004 8.976186 4.274408 -49.131537 4.905173 -0.365608 109.005461 -67.711881 -76.792763 7.119267 -11.209806 -19.331912 24.656764 13.629189 3.778923 45.731587 23.553740 19.658272 67.888431 81.809892 95.583943 -10.821023 13.866761 -3.609533 
-16.767530 5.681472 87.745155 118.665747 -22.709517 75.782709 25.013725 5.458347 -15.353959 -8.722847 0.594955 37.118029 -11.028222 0.847252 5.972306 nan nan nan -14.601086 -11.318436 -11.807846 -8.774020 -18.444692 45.570646 -8.058585 -17.941302 -37.536079 nan nan nan -2.980607 4.124255 19.366162 -6.134975 5.410325 3.006562 -2.775755 0.994529 -1.399018 -2.909793 11.513611 6.383424 -9.272736 13.426166 24.074007 -31.076516 9.524724 3.506790 -49.139088 4.898338 -1.106575 109.777206 -67.558006 -77.039615 8.053957 -10.988246 -19.566408 23.897321 13.332373 2.892107 45.122209 23.584371 19.099362 65.342587 82.019538 92.380235 -11.094542 14.155741 -3.876445 
-17.195698 7.367464 87.300293 116.366164 -23.076493 76.699451 25.051076 6.162330 -14.931586 -9.023831 -0.235481 36.206002 -11.286750 0.687083 5.805708 nan nan nan -15.685682 -11.361361 -13.758445 -8.876552 -16.346306 47.987586 -7.818470 -17.380600 -37.837784 nan nan nan -2.993811 3.498759 19.682354 -6.469603 5.649515 2.317803 -2.844674 0.987510 -0.838856 -2.875628 12.476603 4.494371 -9.499056 14.466906 24.501373 -31.019230 10.019362 2.559488 -48.830605 4.853964 -1.705557 110.545505 -66.977083 -77.846406 8.159074 -11.219771 -19.403759 23.315497 12.778617 2.125598 44.431559 23.933181 18.543791 61.559045 82.204081 87.640427 -11.511640 14.328687 -3.853189 
-17.511406 9.120754 86.880577 114.209843 -22.981766 77.322845 25.593809 6.723713 -14.330431 -9.413158 -0.960388 35.474234 -11.574431 0.415146 5.804853 nan nan nan -16.656634 -11.101994 -15.322350 -8.269655 -14.538454 50.127559 -7.089114 -16.654810 -37.992517 nan nan nan -2.343478 2.679963 19.940826 -6.710547 5.961976 2.503091 -3.068715 0.829209 -0.813078 -3.301943 13.160001 2.930059 -9.573390 15.856771 24.623926 -31.354203 10.183907 1.721763 -48.231329 5.013559 -2.346656 111.280518 -65.991502 -79.061934 8.553922 -11.410219 -19.291692 22.764873 12.587679 1.661496 43.373070 24.108511 17.825825 57.594216 82.563503 82.245027 -11.868152 14.255886 -3.514726 
-17.921013 10.682353 86.484131 112.392895 -22.644746 77.404885 26.576994 6.682868 -13.470362 -10.262776 -1.589441 34.646084 -11.875427 0.696283 6.150149 nan nan nan -17.600373 -10.207402 -16.470051 -6.837948 -13.316952 52.115895 -5.851410 -16.765339 -38.169883 nan nan nan -1.871785 2.007473 21.312722 -6.661174 6.090489 1.923489 -3.180438 0.616060 -0.360560 -3.605203 14.024121 0.551475 -9.616297 16.953482 25.456668 -31.508547 10.147522 0.778592 -47.768980 4.957881 -2.529008 111.414626 -64.501706 -79.684967 8.898757 -11.668986 -19.267713 22.206615 12.535563 0.784103 42.000433 24.171419 17.437427 51.089208 83.274194 74.314549 -11.461437 14.200257 -3.145126 
-18.302504 12.346960 86.089516 110.787291 -21.994435 77.836258 27.773791 6.655448 -13.201215 -10.894461 -1.538874 34.054704 -12.150310 0.727700 6.822550 nan nan nan -18.479766 -9.544116 -17.945116 -5.239678 -12.799070 54.125935 -5.186721 -17.204765 -38.532693 nan nan nan -1.023991 1.193412 21.633454 -6.463081 6.242546 2.187592 -3.360245 0.446793 -0.378745 -4.027923 14.683950 -0.925268 -9.628567 17.949268 25.680421 -31.680695 9.991698 0.252564 -47.226127 5.010556 -2.901568 111.741464 -62.844006 -80.281894 8.897461 -11.759290 -18.794702 21.953840 12.509180 0.714096 40.070421 24.335167 16.280186 42.626881 83.830687 64.873921 -11.106530 14.054677 -2.011183 
-18.688946 14.005689 85.791679 109.314509 -21.316095 78.041346 28.825956 6.677402 -12.852297 -11.288242 -1.269714 33.630237 -12.949805 0.632525 7.691766 nan nan nan -19.384414 -9.149127 -18.991513 -4.417362 -12.830382 55.992180 -4.948514 -17.088199 -39.141377 nan nan nan -0.143081 0.501420 22.423456 -6.317228 6.291621 1.984518 -3.463046 0.363313 -0.384872 -4.337001 15.425736 -1.879458 -9.720112 18.496887 25.745642 -31.418869 9.723056 -0.058143 -46.905823 5.229016 -3.267077 112.176395 -61.384630 -80.903877 9.777913 -11.862738 -18.643694 21.663121 12.516156 0.597450 38.468751 24.155153 14.977871 34.167661 83.867764 55.490098 -12.334104 14.222434 -1.502728 
-19.002394 15.657453 85.597870 108.210820 -20.649347 78.084273 29.619696 6.773313 -12.591484 -11.418638 -0.994314 33.298946 -13.958796 0.446582 8.450161 nan nan nan -20.367263 -9.245966 -19.459397 -4.188090 -13.219298 57.463166 -4.571648 -16.147177 -39.778604 nan nan nan 0.620113 -0.009370 23.165326 -6.043594 6.138798 1.811248 -3.459510 0.321917 -0.586001 -4.432996 16.221435 -2.028267 -9.987350 18.812584 25.485891 -30.986952 9.488653 -0.068371 -46.501725 5.333066 -3.524940 112.652435 -60.154324 -81.841159 10.877992 -12.042841 -19.025688 21.453129 12.378896 0.507711 36.713448 23.719462 13.727328 29.272825 83.800849 49.658645 -13.520782 14.465380 -1.918826 
-19.224321 17.289766 85.470818 107.434875 -20.018242 78.162183 30.184877 7.061772 -12.549098 -11.363126 -0.841933 33.029508 -14.854850 0.355296 8.966129 nan nan nan -21.425773 -10.066478 -19.646052 -4.201620 -13.600692 58.560525 -4.434410 -14.521182 -40.243760 nan nan nan 1.203560 -0.252785 23.438859 -5.589176 5.835013 1.973789 -3.335801 0.260460 -0.964420 -4.393752 16.957631 -1.592631 -10.323010 18.842414 24.865071 -30.602886 9.359204 0.013811 -45.763147 5.319657 -3.984311 113.590117 -59.248381 -83.084233 11.264850 -12.147299 -19.206988 21.455131 12.023113 0.613704 34.572278 23.165639 12.261633 27.855680 83.981477 48.263276 -13.288128 14.418498 -1.598103 
-19.416666 18.895020 85.378532 106.866112 -19.466970 78.383292 30.552291 7.561014 -12.742004 -11.328245 -0.920110 32.733837 -15.445514 0.273592 9.113217 nan nan nan -22.620789 -11.369570 -19.757158 -4.303871 -13.967077 59.267008 -4.807137 -12.701828 -40.462978 nan nan nan 1.623853 -0.356990 23.255389 -5.136789 5.542088 2.289787 -3.108186 0.146133 -1.283942 -4.240182 17.518002 -1.112656 -10.546877 18.708588 24.309111 -30.089025 9.286705 -0.061706 -44.951094 5.132378 -4.697121 114.709551 -58.629618 -84.144216 11.042211 -12.282565 -19.066488 21.406025 11.570358 0.674467 32.656349 22.509463 10.751663 27.307854 84.191488 48.314193 -12.251729 14.454921 -1.037310 
-19.631901 20.468483 85.321182 106.483837 -18.977114 78.824277 30.767798 8.056379 -13.218600 -11.465958 -1.279757 32.287211 -15.644460 0.327413 9.156739 nan nan nan -23.867910 -12.677285 -19.921186 -4.077132 -14.348607 59.492945 -4.930201 -11.153397 -40.355559 nan nan nan 1.961157 -0.474589 22.782828 -4.750663 5.292074 2.347357 -2.808406 -0.032055 -1.305400 -4.174466 17.974556 -0.794511 -10.578833 18.643126 23.918318 -29.576154 9.193395 -0.264494 -43.923956 4.862178 -5.443440 115.754297 -58.201102 -85.306176 11.111789 -12.308971 -18.763773 21.311206 10.993651 0.777921 30.862557 22.208268 9.372786 30.044999 83.981149 51.771502 -13.120899 13.482454 1.473061 
-19.831108 22.025938 85.289429 106.134360 -18.693976 79.407505 30.744751 8.441507 -13.716220 -11.625107 -1.561623 31.663119 -15.468911 0.538797 9.465230 nan nan nan -25.252767 -13.637207 -20.146062 -3.456437 -14.715314 59.338730 -4.664193 -10.105211 -39.936679 nan nan nan 2.036779 -0.457598 22.053128 -4.342129 5.108200 2.432121 -2.520397 -0.276122 -1.201180 -4.204959 18.166022 -0.573080 -10.598589 18.739154 23.507640 -28.969058 9.188667 -0.367966 -42.730958 4.415819 -5.971807 116.649329 -57.863681 -86.487132 11.688776 -12.063814 -18.505540 21.142843 10.357820 0.695430 29.358502 21.943452 8.532089 33.455336 84.172954 54.972210 -13.294593 12.809287 2.179173 
